<svg width="100%" height="100%" viewBox="0 0 24 24" fill="none" xmlns="http://www.w3.org/2000/svg">
  <path d="M12 21.5C16.6944 21.5 20.5 17.6944 20.5 13C20.5 8.30558 16.6944 4.5 12 4.5C7.30558 4.5 3.5 8.30558 3.5 13C3.5 17.6944 7.30558 21.5 12 21.5Z" fill="#00B4D8" fill-opacity="0.3"/>
  <path d="M12 16.25C14.3472 16.25 16.25 14.3472 16.25 12C16.25 9.65279 14.3472 7.75 12 7.75C9.65279 7.75 7.75 9.65279 7.75 12C7.75 14.3472 9.65279 16.25 12 16.25Z" stroke="#0077B6" stroke-width="1.5"/>
  <path d="M12 7.75V2.75" stroke="#00B4D8" stroke-width="1.5" stroke-linecap="round"/>
  <path d="M12 21.25V16.25" stroke="#00B4D8" stroke-width="1.5" stroke-linecap="round"/>
  <path d="M16.25 12H21.25" stroke="#00B4D8" stroke-width="1.5" stroke-linecap="round"/>
  <path d="M2.75 12H7.75" stroke="#00B4D8" stroke-width="1.5" stroke-linecap="round"/>
  <path d="M14.25 4.75L19.25 7.75" stroke="#0077B6" stroke-width="1.5" stroke-linecap="round"/>
  <path d="M4.75 16.25L9.75 13.25" stroke="#0077B6" stroke-width="1.5" stroke-linecap="round"/>
  <path d="M14.25 19.25L19.25 16.25" stroke="#0077B6" stroke-width="1.5" stroke-linecap="round"/>
  <path d="M4.75 7.75L9.75 10.75" stroke="#0077B6" stroke-width="1.5" stroke-linecap="round"/>
  <circle cx="12" cy="12" r="1.25" fill="#00B4D8"/>
</svg> 