<svg width="100%" height="100%" viewBox="0 0 24 24" fill="none" xmlns="http://www.w3.org/2000/svg">
  <path d="M5.75 17.25L8.25 14.75L10.75 17.25L5.75 22.25V17.25Z" fill="#9B57E0"/>
  <path d="M13.25 6.75L17.25 2.75C17.25 2.75 17.25 8.25 14.75 10.75C12.25 13.25 6.75 13.25 6.75 13.25L10.75 9.25" stroke="#6E57E0" stroke-width="1.5" stroke-linecap="round" stroke-linejoin="round"/>
  <path d="M10.75 9.25C10.75 9.25 9.5 10.5 8.25 11.75C7 13 5.75 14.25 5.75 14.25" stroke="#6E57E0" stroke-width="1.5" stroke-linecap="round" stroke-linejoin="round"/>
  <path d="M13.25 6.75C13.25 6.75 12 5.5 10.75 4.25C9.5 3 8.25 1.75 8.25 1.75" stroke="#6E57E0" stroke-width="1.5" stroke-linecap="round" stroke-linejoin="round"/>
  <path d="M18.25 13.25C18.25 13.25 20 12.5 21 11.5C22 10.5 22.75 8.75 22.75 8.75" stroke="#9B57E0" stroke-width="1.5" stroke-linecap="round" stroke-linejoin="round"/>
  <path d="M18.25 13.25C18.25 13.25 17.5 15 16.5 16C15.5 17 13.75 17.75 13.75 17.75" stroke="#9B57E0" stroke-width="1.5" stroke-linecap="round" stroke-linejoin="round"/>
  <circle cx="15.25" cy="8.75" r="1.25" fill="#6E57E0"/>
</svg> 