<svg width="100%" height="100%" viewBox="0 0 24 24" fill="none" xmlns="http://www.w3.org/2000/svg">
  <path d="M12 22C17.5228 22 22 17.5228 22 12C22 6.47715 17.5228 2 12 2C6.47715 2 2 6.47715 2 12C2 17.5228 6.47715 22 12 22Z" fill="#000020" fill-opacity="0.1"/>
  <path d="M16.6072 7.39282C15.9072 6.69282 14.8072 6.29282 13.4072 6.19282C12.0072 6.09282 10.7072 6.29282 9.40718 6.89282C8.10718 7.49282 7.10718 8.39282 6.40718 9.59282C5.70718 10.7928 5.40718 12.1928 5.50718 13.6928C5.50718 13.8928 5.60718 14.1928 5.70718 14.3928C5.80718 14.5928 6.00718 14.7928 6.20718 14.8928C6.40718 14.9928 6.70718 15.0928 7.00718 14.9928C7.30718 14.8928 7.50718 14.7928 7.70718 14.4928C7.90718 14.1928 8.00718 13.9928 8.00718 13.6928C8.00718 12.6928 8.20718 11.7928 8.60718 11.0928C9.00718 10.3928 9.60718 9.79282 10.3072 9.39282C11.0072 8.99282 11.8072 8.89282 12.7072 8.99282C13.6072 9.09282 14.2072 9.39282 14.7072 9.89282C15.2072 10.3928 15.6072 11.0928 15.7072 11.9928C15.8072 12.8928 15.7072 13.6928 15.3072 14.3928C14.9072 15.0928 14.4072 15.6928 13.7072 15.9928C13.0072 16.2928 12.3072 16.4928 11.6072 16.4928C10.9072 16.4928 10.3072 16.3928 9.90718 16.1928C9.50718 15.9928 9.20718 15.7928 9.00718 15.4928C8.80718 15.1928 8.70718 14.8928 8.70718 14.5928C8.70718 14.2928 8.80718 14.0928 8.90718 13.8928C9.10718 13.5928 9.40718 13.3928 9.80718 13.2928C10.2072 13.1928 10.6072 13.0928 11.0072 13.1928C11.4072 13.1928 11.8072 13.2928 12.1072 13.5928C12.4072 13.8928 12.5072 14.1928 12.5072 14.5928C12.5072 14.8928 12.4072 15.1928 12.2072 15.3928C12.0072 15.5928 11.7072 15.6928 11.4072 15.6928C11.1072 15.6928 10.9072 15.5928 10.7072 15.3928C10.5072 15.1928 10.4072 14.9928 10.5072 14.7928C10.6072 14.5928 10.7072 14.4928 10.9072 14.3928" stroke="#805AD5" stroke-width="1.5" stroke-linecap="round" stroke-linejoin="round"/>
  <path d="M11.8072 17.8928C13.6072 17.8928 15.0072 17.5928 16.1072 16.9928C17.2072 16.3928 18.0072 15.4928 18.5072 14.3928C19.0072 13.2928 19.1072 11.9928 18.9072 10.5928C18.7072 9.19282 18.1072 8.09282 17.2072 7.29282" stroke="#805AD5" stroke-width="1.5" stroke-linecap="round" stroke-linejoin="round"/>
</svg> 