<svg width="100%" height="100%" viewBox="0 0 24 24" fill="none" xmlns="http://www.w3.org/2000/svg">
  <path d="M2.75 15.25L8.75 12.25V18.25L2.75 21.25V15.25Z" fill="#FF9F1C"/>
  <path d="M9.25 18.25L15.25 15.25V21.25L9.25 24.25V18.25Z" fill="#FFBF69"/>
  <path d="M15.25 15.25L21.25 12.25V18.25L15.25 21.25V15.25Z" fill="#FF9F1C"/>
  <path d="M9.25 6.25L15.25 3.25V9.25L9.25 12.25V6.25Z" fill="#FF9F1C"/>
  <path d="M15.75 9.25L21.75 6.25V12.25L15.75 15.25V9.25Z" fill="#FFBF69"/>
  <path d="M2.75 9.25L8.75 6.25V12.25L2.75 15.25V9.25Z" fill="#FFBF69"/>
  <path d="M9.25 0.25L15.25 -2.75V3.25L9.25 6.25V0.25Z" fill="#FFBF69" fill-opacity="0.7"/>
  <circle cx="12" cy="12" r="1.5" fill="#FF9F1C"/>
  <path d="M12 2L12 22" stroke="#FF9F1C" stroke-width="0.5" stroke-dasharray="2 2"/>
  <path d="M2 12L22 12" stroke="#FF9F1C" stroke-width="0.5" stroke-dasharray="2 2"/>
</svg> 