<svg width="100%" height="100%" viewBox="0 0 24 24" fill="none" xmlns="http://www.w3.org/2000/svg">
  <path d="M22.2127 16.7076C22.2127 17.2484 22.1382 17.7646 21.9893 18.2807C21.3241 20.7383 19.2687 21.5514 17.0643 21.3035C14.1163 20.9067 11.2428 18.5735 9.3618 16.6553C8.99952 17.1839 8.62477 17.7005 8.24253 18.2171C7.91026 18.6713 7.54299 19.1256 7.15326 19.5552C6.06429 20.8148 4.46329 21.8349 2.60978 21.3282C0.991267 20.861 0.148388 19.3534 0.554614 17.6484C0.855346 16.3518 1.64326 15.3316 2.50616 14.4689C3.17884 13.7795 3.92424 13.1521 4.67711 12.5618C4.35981 12.0331 4.0425 11.492 3.75018 10.9385C2.65372 8.83064 1.86581 6.31084 2.50616 3.8656C2.80596 2.50153 3.77994 1.30501 5.20002 1.05708C6.54311 0.822119 7.82868 1.61523 8.44655 2.81175C9.44301 4.73009 9.51749 7.13498 9.45797 9.27795C9.43548 10.0415 9.35351 10.8051 9.25907 11.5687C9.70878 12.1091 10.171 12.6248 10.6332 13.1158C11.4884 12.2778 12.4175 11.515 13.4065 10.875C14.0792 10.4331 14.8021 10.0116 15.5623 9.72116C17.3514 9.01174 19.5484 9.19708 20.8615 10.6676C21.7543 11.6631 22.2127 12.9844 22.2127 14.3732C22.2127 15.1492 22.2127 15.9252 22.2127 16.7076ZM6.43285 19.5058C7.44179 19.5058 8.41577 18.6679 9.17612 18.0776C9.46095 17.8421 9.73082 17.5818 9.98822 17.3092C8.85677 16.0372 7.78279 14.6114 6.86284 13.0543C6.13495 13.4344 5.44731 13.8763 4.78959 14.3732C4.00917 14.9758 3.28128 15.666 2.82409 16.5163C2.32443 17.4413 2.52828 18.509 3.3587 19.0745C4.2337 19.6771 5.4947 19.5058 6.43285 19.5058ZM7.86589 2.97705C7.37372 2.19603 6.50333 1.80172 5.60836 2.00211C4.71339 2.19001 4.05567 3.04097 3.85182 3.89193C3.29214 6.08243 4.05567 8.36792 4.97562 10.2862C5.19443 10.7529 5.42821 11.2072 5.68561 11.6614C6.67458 10.9347 7.73359 10.3074 8.84256 9.78592C8.89459 9.15389 8.92457 8.50934 8.92457 7.85229C8.92457 6.05908 8.74569 4.31084 7.86589 2.97705ZM17.6315 10.5952C16.4975 10.2481 15.2869 10.5087 14.2829 10.9876C13.7158 11.2448 13.1861 11.5513 12.6788 11.8825C13.0166 12.1674 13.3543 12.4647 13.6921 12.7743C14.6661 13.6869 15.5986 14.6948 16.5051 15.6904C17.0123 15.371 17.4994 15.0026 17.9267 14.5608C18.4713 13.9952 18.916 13.2389 18.916 12.4134C18.916 11.5884 18.4788 10.8446 17.6315 10.5952ZM11.9612 14.2684C11.2183 13.5419 10.4753 12.8153 9.73231 12.0888C9.37252 11.7171 9.01273 11.3454 8.66043 10.9614C8.72744 10.3197 8.75742 9.66554 8.74992 9.01174C8.71994 7.46419 8.51609 5.92413 7.91573 4.49507C9.41717 4.64285 10.9036 5.4734 11.9612 6.52408C13.0166 7.57476 13.847 8.89351 14.0508 10.3197C13.3606 10.6421 12.6938 11.0173 12.0585 11.4365C11.9987 11.4765 11.9387 11.5166 11.8788 11.5621C11.9087 12.4647 11.9387 13.3673 11.9612 14.2684ZM20.2494 15.2094C20.1746 16.1246 20.0256 17.0397 19.7408 17.9055C19.3111 19.1508 18.3896 19.8773 17.0868 19.9756C16.16 20.0462 15.218 19.8351 14.3757 19.4015C13.9984 19.1994 13.6386 18.9638 13.2863 18.7159C12.3738 17.7204 11.4614 16.7248 10.549 15.7293C10.5265 14.8267 10.5041 13.9241 10.4741 13.0215C11.0295 12.6248 11.5997 12.2531 12.1924 11.9182C12.8201 11.5834 13.4728 11.2883 14.1455 11.0553C14.933 11.5359 15.6612 12.106 16.3349 12.7197C16.9576 13.2884 17.5428 13.8944 18.063 14.5362C18.7956 15.3986 19.8921 16.2737 20.2494 15.2094Z" fill="#C63D14"/>
  <path d="M13.9461 7.32392C14.4382 7.32392 14.8364 7.73315 14.8364 8.23751C14.8364 8.74187 14.4382 9.1511 13.9461 9.1511C13.454 9.1511 13.0557 8.74187 13.0557 8.23751C13.0557 7.73315 13.454 7.32392 13.9461 7.32392Z" fill="#C63D14"/>
</svg> 