<svg width="100%" height="100%" viewBox="0 0 24 24" fill="none" xmlns="http://www.w3.org/2000/svg">
  <path d="M12 22.5C17.799 22.5 22.5 17.799 22.5 12C22.5 6.20101 17.799 1.5 12 1.5C6.20101 1.5 1.5 6.20101 1.5 12C1.5 17.799 6.20101 22.5 12 22.5Z" fill="black"/>
  <path d="M15.6788 19.0231C15.556 19.0757 15.4236 19.0992 15.2911 19.0918C15.1585 19.0844 15.0298 19.0463 14.9158 18.9809L7.04192 14.1349V9.86507L15.6563 4.98901C15.7773 4.91683 15.9158 4.87969 16.0558 4.8822C16.1958 4.88471 16.3326 4.92676 16.4507 5.00345C16.5689 5.08014 16.6642 5.18839 16.7267 5.31529C16.7893 5.44219 16.8168 5.58323 16.8062 5.72398V18.2768C16.8179 18.4191 16.7903 18.5619 16.7266 18.6903C16.6629 18.8186 16.5657 18.9278 16.4455 19.0046C16.3254 19.0814 16.1865 19.1229 16.0445 19.1247C15.9024 19.1264 15.7625 19.0883 15.6406 19.0144L15.6788 19.0231Z" fill="url(#paint0_linear_103_35)"/>
  <defs>
    <linearGradient id="paint0_linear_103_35" x1="11.9241" y1="4.88208" x2="11.9241" y2="19.1247" gradientUnits="userSpaceOnUse">
      <stop stop-color="white"/>
      <stop offset="1" stop-color="white" stop-opacity="0.58"/>
    </linearGradient>
  </defs>
</svg> 