<svg width="100%" height="100%" viewBox="0 0 24 24" fill="none" xmlns="http://www.w3.org/2000/svg">
  <path d="M12 14.2727C13.2624 14.2727 14.2857 13.2493 14.2857 11.9869C14.2857 10.7244 13.2624 9.70108 12 9.70108C10.7376 9.70108 9.71429 10.7244 9.71429 11.9869C9.71429 13.2493 10.7376 14.2727 12 14.2727Z" fill="#61DAFB"/>
  <path fill-rule="evenodd" clip-rule="evenodd" d="M12 16.5C18.6274 16.5 24 14.433 24 11.9868C24 9.54064 18.6274 7.47368 12 7.47368C5.37258 7.47368 0 9.54064 0 11.9868C0 14.433 5.37258 16.5 12 16.5ZM12 14.8421C17.799 14.8421 22.4909 13.5313 22.4909 11.9868C22.4909 10.4423 17.799 9.13158 12 9.13158C6.20104 9.13158 1.50909 10.4423 1.50909 11.9868C1.50909 13.5313 6.20104 14.8421 12 14.8421Z" fill="#61DAFB"/>
  <path fill-rule="evenodd" clip-rule="evenodd" d="M4.97624 7.83147C8.29051 1.69232 12.7116 -0.949475 15.0284 0.396326C17.3452 1.74213 17.1569 8.00362 13.8426 14.1428C10.5284 20.2819 6.10729 22.9237 3.79049 21.5779C1.47368 20.2321 1.66198 13.9706 4.97624 7.83147ZM13.0708 13.1116C15.8952 7.96239 16.3177 2.75977 14.7453 1.87439C13.1729 0.989003 9.64761 3.39068 6.82323 8.53993C3.99886 13.6892 3.57632 18.8918 5.14875 19.7772C6.72117 20.6626 10.2465 18.2609 13.0708 13.1116Z" fill="#61DAFB"/>
  <path fill-rule="evenodd" clip-rule="evenodd" d="M19.0244 7.83147C22.3387 13.9706 22.527 20.2321 20.2102 21.5779C17.8934 22.9237 13.4723 20.2819 10.158 14.1428C6.84375 8.00362 6.65544 1.74213 8.97225 0.396326C11.2891 -0.949475 15.7101 1.69232 19.0244 7.83147ZM10.9299 13.1116C13.7542 18.2609 17.2795 20.6626 18.8519 19.7772C20.4244 18.8918 20.0018 13.6892 17.1774 8.53993C14.3531 3.39068 10.8278 0.989003 9.25535 1.87439C7.68293 2.75977 8.10547 7.96239 10.9299 13.1116Z" fill="#61DAFB"/>
</svg> 