<svg width="24" height="24" viewBox="0 0 24 24" fill="none" xmlns="http://www.w3.org/2000/svg">
  <path d="M12 13.7585C13.0486 13.7585 13.8995 12.9076 13.8995 11.859C13.8995 10.8104 13.0486 9.95947 12 9.95947C10.9514 9.95947 10.1005 10.8104 10.1005 11.859C10.1005 12.9076 10.9514 13.7585 12 13.7585Z" fill="#2B6CB0"/>
  <path d="M12 16.2393C17.6868 16.2393 22.2995 14.2799 22.2995 11.859C22.2995 9.43815 17.6868 7.47876 12 7.47876C6.31316 7.47876 1.70047 9.43815 1.70047 11.859C1.70047 14.2799 6.31316 16.2393 12 16.2393Z" stroke="#2B6CB0" stroke-width="2"/>
  <path d="M8.47931 14.0491C11.3229 19.1755 14.9156 22.2923 17.1493 21.0819C19.3829 19.8714 19.3197 15.1335 16.4761 10.0071C13.6325 4.88075 10.0398 1.76391 7.80622 2.97437C5.57259 4.18483 5.63582 8.92278 8.47931 14.0491Z" stroke="#2B6CB0" stroke-width="2"/>
  <path d="M8.47854 10.0071C5.63505 15.1335 5.57183 19.8714 7.80546 21.0819C10.0391 22.2923 13.6318 19.1755 16.4753 14.0491C19.3188 8.92278 19.3821 4.18483 17.1484 2.97437C14.9148 1.76391 11.3221 4.88075 8.47854 10.0071Z" stroke="#2B6CB0" stroke-width="2"/>
</svg> 