<svg width="100%" height="100%" viewBox="0 0 24 24" fill="none" xmlns="http://www.w3.org/2000/svg">
  <path d="M12 14.25C13.2426 14.25 14.25 13.2426 14.25 12C14.25 10.7574 13.2426 9.75 12 9.75C10.7574 9.75 9.75 10.7574 9.75 12C9.75 13.2426 10.7574 14.25 12 14.25Z" fill="#61DAFB"/>
  <path d="M12 16.75C7.44365 16.75 3.75 14.5543 3.75 12C3.75 9.44568 7.44365 7.25 12 7.25C16.5563 7.25 20.25 9.44568 20.25 12C20.25 14.5543 16.5563 16.75 12 16.75Z" stroke="#61DAFB" stroke-width="1.5"/>
  <path d="M9.25 12C9.25 7.44365 10.5543 3.75 12 3.75C13.4457 3.75 14.75 7.44365 14.75 12C14.75 16.5563 13.4457 20.25 12 20.25C10.5543 20.25 9.25 16.5563 9.25 12Z" stroke="#00D8FF" stroke-width="1.5"/>
  <path d="M7.89531 8.42531C10.1732 4.58517 13.0924 2.62271 14.25 3.75C15.4076 4.87729 14.4253 8.44139 12.1474 12.2815C9.86943 16.1217 6.95023 18.0841 5.79266 16.9568C4.63509 15.8295 5.61746 12.2655 7.89531 8.42531Z" stroke="#00D8FF" stroke-width="1.5"/>
</svg> 