<svg width="100%" height="100%" viewBox="0 0 24 24" fill="none" xmlns="http://www.w3.org/2000/svg">
  <path d="M5 3L6.14087 18.8171C6.18367 19.4778 6.64928 20.0176 7.2945 20.1631L12 21.5L17.3573 20.0476C17.9657 19.8871 18.4 19.3539 18.44 18.7297L19.4538 3H5Z" fill="#FF4785" />
  <path d="M16.4692 8C16.1609 8 15.9692 8.13333 15.8942 8.40061C15.3359 6.8 14.0609 6.66667 13.4276 6.66667C11.6776 6.66667 10.2776 8.06667 10.2776 9.73333C10.2776 11.4 11.3026 12.2667 12.4776 12.8C11.5276 13.2667 9.80256 14.2667 9.80256 15.8C9.80256 17.3333 11.0776 18.6 13.0526 18.6C14.5776 18.6 16.2776 17.6667 16.2776 15.7333C16.2776 14.2 15.0526 13.2667 13.3776 12.6C14.3026 12.2 15.6526 11.4 15.6526 9.86667C15.6526 9.26667 15.4026 8.6 15.0192 8.26667C15.3026 8.26667 15.7776 8.53333 15.9276 8.66667C16.0026 8.73333 16.1109 8.73333 16.1859 8.66667L16.5526 8.33333C16.6276 8.26667 16.6276 8.13333 16.5526 8.06667C16.2776 7.73333 15.5026 7.13333 14.4776 7.13333C14.5526 7.33333 14.5526 7.6 14.5526 7.73333C14.5526 8.8 13.6776 9.46667 12.8026 9.93333C12.2026 10.2667 11.4776 10.6 11.4776 11.4C11.4776 11.8667 11.8442 12.2667 12.5526 12.2667C14.1526 12.2667 14.9526 11.0667 14.9526 9.86667C14.9526 8.73333 14.2442 8 13.4276 8C12.5526 8 11.9192 8.86667 11.9192 9.66667C11.9192 10.6667 12.6942 11.0667 13.1526 11.0667C12.8026 11.2 11.5526 11.7333 11.5526 13.3333C11.5526 14.2 12.2776 15.0667 13.1526 15.0667C13.9692 15.0667 14.7776 14.2667 14.7776 13.4C14.7776 12.8 14.4776 12.2667 13.9692 12.0667C14.7026 12.0667 15.6526 12.6 15.6526 13.6667C15.6526 14.8 14.7026 16.1333 13.1526 16.1333C11.4776 16.1333 10.8442 14.9333 10.8442 14C10.8442 13.3333 11.0192 12.6 11.6526 12.2667L11.5026 12.0667C10.3776 12.3333 10.0276 13.3333 10.0276 14.1333C10.0276 15.9333 11.4026 17.8 13.2276 17.8C15.4776 17.8 16.9276 16.0667 16.9276 14C16.8526 12.6 15.9026 11.7333 14.8026 11.3333L14.7026 11.4667C14.9776 11.5333 16.1859 12.1333 16.1859 13.8C16.1859 15.4 14.9776 16.9333 13.2276 16.9333C11.6276 16.9333 10.7526 15.7333 10.7526 14.4667C10.7526 12.3333 12.4026 11.7333 12.8026 11.6667L12.9526 11.5333C12.2776 11.4 11.1526 10.8667 11.1526 9.8C11.1526 9.06667 11.6276 8.33333 12.4026 8.33333C13.3026 8.33333 13.9026 9.13333 13.9026 10C13.9026 11.0667 13.1526 12.0667 11.9192 12.0667L12.0276 12.2667C12.7776 12.2 14.1526 11.4 14.1526 9.93333C14.1526 8.86667 13.4276 7.8 12.3776 7.8C11.3026 7.8 10.5026 8.73333 10.5026 9.73333C10.5026 11.0667 11.5026 11.6667 12.1359 11.8L12.2776 11.6667C11.8442 11.5333 10.9692 11.0667 10.9692 9.8C10.9692 9 11.4776 8.2 12.3776 8.2C13.1526 8.2 13.6776 8.8 13.6776 9.66667C13.6776 10.5333 13.1526 11.2 12.4026 11.4L12.5526 11.6C13.3776 11.4 14.4776 10.6667 14.4776 9.45333C14.4776 8.4 13.6776 7.6 12.5526 7.6C11.3026 7.6 10.3026 8.6 10.3026 9.93333C10.3026 11.4 11.3776 12.2 12.3026 12.4L12.4776 12.2C11.4776 12.0667 10.7526 11.0667 10.7526 9.93333C10.7526 8.93333 11.4776 8.13333 12.4776 8.13333C13.3776 8.13333 14.0609 8.86667 14.0609 9.8C14.0609 10.7333 13.5276 11.4 12.7026 11.6L12.8026 11.8C13.7026 11.5333 14.7026 10.6667 14.7026 9.6C14.7026 8.2 13.5526 7.4 12.4776 7.4C11.3026 7.4 10.0026 8.33333 10.0026 9.86667C10.0026 11.4 11.0026 12.4 12.0026 12.6667L12.2026 12.5333C11.2776 12.4 10.4776 11.4667 10.4776 10C10.4776 8.4 11.7026 7.33333 13.1526 7.33333C14.5276 7.33333 15.4776 8.2 15.4776 9.33333C15.4776 9.86667 15.3026 10.2667 14.9776 10.6L15.1276 10.8C15.6276 10.4 15.9776 9.8 15.9776 9.06667C15.9776 7.66667 14.6526 6.66667 13.2276 6.66667C11.8026 6.66667 9.80256 7.73333 9.80256 10C9.80256 12.2667 11.3026 13.2 12.4026 13.4667L12.5526 13.3333C11.4776 13.0667 10.4776 12.0667 10.4776 10.0667C10.4776 8.06667 12.0026 7 13.3776 7C14.9026 7 16.1109 8.06667 16.1109 9.6C16.1109 10.6 15.6526 11.2667 15.1276 11.6L15.3026 11.8C15.9776 11.2667 16.4692 10.4 16.4692 9.33333C16.4692 7.6 15.0192 6.4 13.2276 6.4C11.1526 6.4 9.57589 7.8 9.57589 10C9.57589 11.6 10.3776 12.6 11.3776 13.1333H11.5026C11.0276 12.7333 10.2776 11.9333 10.2776 10.1333C10.2776 8.26667 11.8442 6.86667 13.3776 6.86667C15.6526 6.86667 16.6776 8.53333 16.6776 10C16.6776 11.4 15.9026 12.1333 15.3026 12.5333C15.4776 12.5333 15.9026 12.6 16.4026 12.9333C16.4776 13 16.5526 12.9333 16.6276 12.8667L16.9026 12.5333C16.9776 12.4667 16.9776 12.3333 16.9026 12.2667C16.4776 11.8 15.4776 11.2 14.4026 11.2667C14.1276 11.4667 13.7776 11.6 13.3776 11.6C13.4526 11.8 13.6776 11.9333 13.9026 11.9333C14.5526 11.9333 15.3776 11.4 15.3776 10.6C15.3776 9.73333 14.6526 9.13333 13.9026 9.13333C13.0276 9.13333 12.3776 9.93333 12.3776 10.8C12.3776 11.6667 12.8776 12.2 13.5276 12.2C14.1859 12.2 14.9026 11.4667 14.9026 10A4.5 4.5 0 0 0 13.2276 6.66667C11.1526 6.66667 9.42756 8.33333 9.42756 10.0667C9.42756 12.4 11.5026 13.1333 12.2776 13.1333C12.0026 13.2 10.6276 13.7333 10.6276 15.2C10.6276 16.5333 11.7026 17.6 13.1526 17.6C14.9026 17.6 16.5526 16.1333 16.5526 14.1333C16.5526 12.4 15.1276 11.4 13.8526 11.4C13.9276 11.6 14.0026 11.8 14.0026 12C14.0026 12.8 13.4026 13.6 12.8026 13.6C12.0776 13.6 11.6526 13.0667 11.6526 12.4C11.6526 11.0667 12.9526 10.4667 13.3776 10.3333L13.2276 10.1333C12.7776 10.2 11.4776 10.7333 11.4776 12.4C11.4776 13.6 12.2776 14.6 13.3026 14.6C14.4026 14.6 15.2776 13.6 15.2776 12.3333C15.2776 11.4 14.7776 10.8 14.1859 10.4L14.0026 10.6C14.5526 10.8667 14.9026 11.4 14.9026 12C14.9026 13.0667 14.2442 14 13.3026 14C12.4776 14 11.8442 13.2667 11.8442 12.4C11.8442 11.4 12.5526 10.6667 13.3026 10.6667L13.4026 10.4667C12.7026 10.5333 11.2776 11.0667 11.2776 12.6C11.2776 14 12.4026 15.1333 13.4776 15.1333C14.7026 15.1333 15.5026 13.8667 15.5026 12.5333C15.5026 11.4 14.7026 10.6 14.0026 10.2667L13.8526 10.4667C14.5526 10.7333 15.1276 11.4 15.1276 12.4C15.1276 13.8 14.2442 14.6667 13.4026 14.6667C12.4776 14.6667 11.9776 13.8 11.9776 12.8C11.9776 11.4 13.2276 10.8 13.8526 10.6667L13.7776 10.5333C12.7776 10.6667 11.0776 11.4 11.0776 13C11.0776 14.6 12.3026 16 13.6776 16C15.0526 16 16.1859 14.6 16.1859 12.9333C16.1859 11.4 15.2776 10.2667 14.3026 9.86667L14.2026 10.0667C15.0192 10.4 15.7026 11.2667 15.7026 12.6C15.7026 14.1333 14.7026 15.4667 13.4776 15.4667C12.2776 15.4667 11.3776 14.3333 11.3776 12.9333C11.3776 11.4 12.8026 10.5333 13.5526 10.3333L13.4776 10.1333C12.5526 10.3333 10.8026 11.2 10.8026 13.0667C10.8026 14.9333 12.2776 16.4 13.7026 16.4C15.3026 16.4 16.8526 14.8 16.8526 12.8C16.8526 11.4 16.1109 10.2 15.0192 9.73333C15.0942 9.93333 15.1276 10.1333 15.1276 10.4C15.1276 11.7333 14.1276 12.7333 13.0526 12.7333C12.0026 12.7333 11.2026 11.9333 11.2026 10.8667C11.2026 9.93333 11.8442 9.06667 12.8026 9.06667C13.2276 9.06667 13.6776 9.26667 13.9026 9.53333C14.1276 9.86667 14.2776 10.2 14.2776 10.5333L14.5526 10.6C14.8776 10.0667 14.9776 9.46667 14.9776 8.86667C14.9776 8.53333 14.9026 8.26667 14.7776 8C15.0942 8.13333 15.3776 8.26667 15.6526 8.46667L16.0192 8.06667C15.6526 7.8 15.2026 7.6 14.6526 7.53333C14.7026 7.06667 14.6526 6.93333 14.5776 6.8L14.2776 6.93333C14.2026 7.6 13.7776 8.13333 13.3026 8.13333C12.8026 8.13333 12.3026 7.73333 12.3026 7.13333C12.3026 6.93333 12.3776 6.73333 12.4776 6.6L12.2776 6.46667C12.0776 6.73333 11.9026 7.06667 11.9026 7.46667C11.9026 8.33333 12.6942 9 13.4776 9C14.0609 9 14.5526 8.6 14.6526 8.06667C14.8026 8.13333 14.8776 8.26667 14.8776 8.46667C14.8776 8.93333 14.4776 9.26667 14.1276 9.26667C13.7776 9.26667 13.4776 9 13.4776 8.6C13.4776 8.2 13.7776 7.93333 14.1276 7.93333L14.0026 7.73333C13.4776 7.73333 13.0526 8.2 13.0526 8.73333C13.0526 9.33333 13.5526 9.8 14.2026 9.8C14.9026 9.8 15.5026 9.13333 15.5026 8.4C15.5026 7.8 15.1276 7.33333 14.5526 7.13333C15.0192 7.13333 15.4026 7.2 15.8026 7.46667C15.9026 7.53333 16.0026 7.53333 16.0776 7.46667L16.4692 7.06667C16.5526 7 16.5526 6.86667 16.4692 6.8C16.0192 6.46667 15.4776 6.26667 14.9026 6.33333C14.7026 6.2 14.4776 6.13333 14.2026 6.13333C14.3776 6.53333 14.4776 7 14.4776 7.33333C14.4776 8.26667 13.7026 9 12.9526 9.4C12.4776 9.73333 11.8442 10.0667 11.8442 10.7333C11.8442 11.2 12.2026 11.5333 12.7026 11.5333C13.9026 11.5333 14.5526 10.6 14.5526 9.66667C14.5526 8.73333 13.9776 8.13333 13.2276 8.13333C12.5526 8.13333 12.0776 8.8 12.0776 9.4C12.0776 10.2 12.7026 10.4667 13.0526 10.4667C12.7026 10.5333 11.5026 11.0667 11.5026 12.4C11.5026 13.1333 12.1276 13.8 12.8026 13.8C13.4776 13.8 14.1276 13.1333 14.1276 12.4C14.1276 11.8667 13.8526 11.4667 13.4776 11.3333C14.0609 11.3333 14.8776 11.7333 14.8776 12.6C14.8776 13.6 14.0609 14.6667 12.7776 14.6667C11.3776 14.6667 10.8776 13.6667 10.8776 12.9333C10.8776 12.4 11.0026 11.8 11.5026 11.5333L11.4026 11.3333C10.4776 11.5333 10.1276 12.4 10.1276 13.0667C10.1276 14.5333 11.2776 16.1333 12.8026 16.1333C14.6526 16.1333 15.9026 14.6667 15.9026 13C15.9026 11.8 15.1276 11.0667 14.2026 10.8L14.1276 10.9333C14.3776 11 15.4026 11.4 15.4026 12.7333C15.4026 14.0667 14.3776 15.3333 12.8776 15.3333C11.5526 15.3333 10.8026 14.3333 10.8026 13.3333C10.8026 11.5333 12.2026 11.0667 12.5526 11L12.6776 10.8667C12.1276 10.7333 11.2026 10.3333 11.2026 9.46667C11.2026 8.86667 11.5526 8.26667 12.2026 8.26667C12.9526 8.26667 13.4776 8.86667 13.4776 9.53333C13.4776 10.4 12.8026 11.1333 11.8442 11.1333L11.9776 11.3333C12.5526 11.2667 13.6776 10.6 13.6776 9.4C13.6776 8.46667 13.0526 7.6 12.1276 7.6C11.3026 7.6 10.5526 8.33333 10.5526 9.4C10.5526 10.5333 11.3776 11.0667 11.9026 11.2L12.0026 11.0667C11.6526 10.9333 10.9026 10.5333 10.9026 9.46667C10.9026 8.86667 11.2776 8.13333 12.0776 8.13333C12.7026 8.13333 13.1526 8.66667 13.1526 9.4C13.1526 10.1333 12.7026 10.6667 12.0776 10.8667L12.2026 11C12.8776 10.8667 13.7776 10.2 13.7776 9.26667C13.7776 8.33333 13.1276 7.6 12.2026 7.6C11.1526 7.6 10.3026 8.46667 10.3026 9.6C10.3026 10.9333 11.2026 11.5333 11.9776 11.6667L12.1276 11.5333C11.3026 11.4 10.7026 10.6 10.7026 9.6C10.7026 8.73333 11.3026 8 12.1276 8C12.9026 8 13.5026 8.6 13.5026 9.4C13.5026 10.1333 13.0526 10.7333 12.4026 10.9333L12.5026 11.1333C13.3026 10.8667 14.0609 10.1333 14.0609 9.2C14.0609 8 13.1526 7.33333 12.2026 7.33333C11.1526 7.33333 10.0776 8.13333 10.0776 9.46667C10.0776 10.7333 10.9026 11.6 11.8442 11.8L12.0026 11.6667C11.2026 11.5333 10.4776 10.7333 10.4776 9.4C10.4776 8 11.5526 7.13333 12.7776 7.13333C13.9026 7.13333 14.7776 7.86667 14.7776 8.86667C14.7776 9.26667 14.6526 9.6 14.3776 9.86667L14.5526 10.0667C14.9776 9.73333 15.2776 9.26667 15.2776 8.6C15.2776 7.4 14.1276 6.53333 12.9026 6.53333C11.6776 6.53333 9.95923 7.53333 9.95923 9.53333C9.95923 11.6 11.3026 12.4 12.2026 12.6L12.3026 12.4667C11.4026 12.2667 10.5526 11.3333 10.5526 9.53333C10.5526 7.86667 11.8442 6.86667 13.0526 6.86667C14.4026 6.86667 15.4776 7.8 15.4776 9.13333C15.4776 9.93333 15.0942 10.5333 14.6526 10.8L14.7776 11C15.3776 10.5333 15.8026 9.73333 15.8026 8.86667C15.8026 7.33333 14.5526 6.33333 13.0026 6.33333C11.1526 6.33333 9.80256 7.6 9.80256 9.53333C9.80256 11 10.5026 11.8667 11.3776 12.3333H11.4776C11.0026 12 10.3776 11.2667 10.3776 9.73333C10.3776 8.06667 11.7026 6.8 13.0526 6.8C15.0192 6.8 16.0026 8.26667 16.0026 9.6C16.0026 10.8 15.3776 11.5333 14.9026 11.8667C15.0192 11.8667 15.4776 11.9333 15.8776 12.2C15.9776 12.2667 16.0776 12.2 16.1529 12.1333L16.3776 11.9333C16.4776 11.8667 16.4776 11.7333 16.3776 11.6667C16.0192 11.3333 15.0942 10.8 14.1859 10.8667C14.5526 8.33333 16.4692 8 16.4692 8Z" fill="white" />
</svg> 