<svg width="100%" height="100%" viewBox="0 0 24 24" fill="none" xmlns="http://www.w3.org/2000/svg">
  <path d="M2 2V22H22V2H2Z" fill="#3178C6"/>
  <path d="M13.5911 11.5533V13.6045H10.8644V20.7422H8.35556V13.6045H5.62889V11.5533H13.5911Z" fill="white"/>
  <path fill-rule="evenodd" clip-rule="evenodd" d="M14.3822 20.6989V18.2811C14.3822 18.2811 15.3933 18.9778 16.6622 18.9778C17.9311 18.9778 18.2378 18.45 18.2378 17.9656C18.2378 16.9967 14.3822 16.9967 14.3822 13.9C14.3822 11.7767 16.12 11.2489 17.6267 11.2489C19.1333 11.2489 20.7956 11.9456 20.7956 11.9456L20.0889 14.1122C20.0889 14.1122 18.9756 13.5411 17.8622 13.5411C16.7489 13.5411 16.4422 13.9 16.4422 14.2589C16.4422 15.2278 20.2978 15.1411 20.2978 17.9222C20.2978 20.1756 18.5156 21.2745 16.7044 21.2745C14.08 21.2745 14.3822 20.6989 14.3822 20.6989Z" fill="white"/>
</svg> 