<svg width="100%" height="100%" viewBox="0 0 24 24" fill="none" xmlns="http://www.w3.org/2000/svg">
  <path d="M23.0405 4.3306L12.7737 22.4441C12.6381 22.6637 12.3241 22.6447 12.2106 22.4131L1.0242 3.88065C0.895404 3.61663 1.13177 3.31499 1.41488 3.39685L11.9769 6.12261C12.0365 6.1391 12.0994 6.13953 12.159 6.12367L22.6552 3.38453C22.9388 3.29961 23.1774 3.60381 23.0405 3.86783V4.3306Z" fill="url(#paint0_linear_vite)"/>
  <path d="M16.1937 0.108833L8.63821 1.68445C8.53221 1.70837 8.45095 1.7927 8.43127 1.90031L7.14013 8.38926C7.11147 8.54451 7.24396 8.68636 7.40035 8.66721L9.25146 8.47363C9.42353 8.45278 9.57017 8.61112 9.53216 8.78088L8.5804 13.2139C8.53792 13.405 8.72578 13.565 8.90653 13.4854L10.0626 13.0239C10.243 12.9444 10.4309 13.1041 10.3887 13.2952L8.95842 19.2119C8.89952 19.4924 9.26805 19.6559 9.43578 19.4343L9.76349 19.0103L15.8916 9.21486C15.9943 9.05251 15.8586 8.8449 15.6712 8.87214L13.7574 9.09353C13.5786 9.1194 13.4413 8.94045 13.5168 8.77594L16.4375 0.493861C16.5131 0.329345 16.3596 0.155001 16.1937 0.108833Z" fill="url(#paint1_linear_vite)"/>
  <defs>
    <linearGradient id="paint0_linear_vite" x1="4.51069" y1="4.76322" x2="16.4727" y2="18.2099" gradientUnits="userSpaceOnUse">
      <stop stop-color="#41D1FF"/>
      <stop offset="1" stop-color="#BD34FE"/>
    </linearGradient>
    <linearGradient id="paint1_linear_vite" x1="10.9751" y1="1.7217" x2="14.2819" y2="13.9856" gradientUnits="userSpaceOnUse">
      <stop stop-color="#FFEA83"/>
      <stop offset="0.0833333" stop-color="#FFDD35"/>
      <stop offset="1" stop-color="#FFA800"/>
    </linearGradient>
  </defs>
</svg> 