<svg width="800" height="450" viewBox="0 0 800 450" fill="none" xmlns="http://www.w3.org/2000/svg">
  <rect width="800" height="450" fill="#4a9c59"/>
  <rect x="100" y="100" width="600" height="250" rx="12" fill="#ffffff" opacity="0.9"/>
  <text x="400" y="180" font-family="Arial" font-size="36" font-weight="bold" fill="#4a9c59" text-anchor="middle">Cross-Platform Styling</text>
  <text x="400" y="220" font-family="Arial" font-size="24" fill="#555555" text-anchor="middle">Using react-native-cross-platform-dimensions</text>
  
  <!-- Device Icons -->
  <rect x="250" y="250" width="90" height="60" rx="4" fill="#4a9c59"/>
  <rect x="260" y="260" width="70" height="40" rx="2" fill="#ffffff"/>
  
  <rect x="355" y="250" width="30" height="60" rx="4" fill="#4a9c59"/>
  <rect x="360" y="260" width="20" height="40" rx="2" fill="#ffffff"/>
  
  <rect x="400" y="250" width="40" height="60" rx="4" fill="#4a9c59"/>
  <rect x="405" y="260" width="30" height="40" rx="2" fill="#ffffff"/>
  
  <rect x="460" y="250" width="90" height="60" rx="4" fill="#4a9c59"/>
  <rect x="470" y="260" width="70" height="40" rx="2" fill="#ffffff"/>
  
  <!-- Connection Lines -->
  <line x1="290" y1="320" x2="370" y2="350" stroke="#4a9c59" stroke-width="2"/>
  <line x1="370" y1="320" x2="370" y2="350" stroke="#4a9c59" stroke-width="2"/>
  <line x1="420" y1="320" x2="370" y2="350" stroke="#4a9c59" stroke-width="2"/>
  <line x1="510" y1="320" x2="370" y2="350" stroke="#4a9c59" stroke-width="2"/>
  
  <rect x="330" y="350" width="80" height="30" rx="5" fill="#4a9c59"/>
  <text x="370" y="370" font-family="Arial" font-size="14" fill="#ffffff" text-anchor="middle">NPM</text>
</svg> 